<?xml version="1.0" standalone="no"?>
<!DOCTYPE svg PUBLIC "-//W3C//DTD SVG 20010904//EN"
 "http://www.w3.org/TR/2001/REC-SVG-20010904/DTD/svg10.dtd">
<svg version="1.0" xmlns="http://www.w3.org/2000/svg"
 width="3629.000000pt" height="3635.000000pt" viewBox="0 0 3629.000000 3635.000000"
 preserveAspectRatio="xMidYMid meet">

<g transform="translate(0.000000,3635.000000) scale(0.100000,-0.100000)"
fill="#000000" stroke="none">
<path d="M0 18175 l0 -18175 18145 0 18145 0 0 2115 0 2115 -4302 2 -4303 3
-58 22 c-75 29 -135 73 -179 131 -19 26 -903 1296 -1963 2822 -1601 2305
-1940 2787 -2000 2845 -39 39 -78 81 -86 94 l-15 23 -9099 -2461 c-5005 -1354
-9147 -2477 -9205 -2496 -450 -144 -876 -196 -1133 -139 -284 63 -413 263
-334 516 90 285 448 682 962 1068 61 45 2604 2162 5653 4704 l5542 4621 -4282
8 c-3888 7 -4286 9 -4320 23 -47 21 -86 62 -98 105 -14 47 -14 9681 0 9728 12
42 43 77 92 102 36 19 232 19 10311 19 l10273 0 356 298 c196 163 406 342 466
397 61 55 170 152 242 215 72 63 147 129 165 145 18 17 72 64 120 105 48 41
141 124 208 183 125 110 167 147 295 259 40 34 128 112 195 171 67 59 145 128
172 152 78 68 185 161 245 215 30 26 84 74 120 105 148 129 293 256 370 325
30 26 84 74 120 105 36 30 90 78 120 104 30 27 87 77 125 111 39 34 95 83 125
110 30 27 84 74 120 105 36 31 90 78 120 104 30 27 87 77 125 111 39 34 95 83
125 110 30 27 84 74 120 105 36 31 90 78 120 104 139 124 259 229 365 321 39
34 95 83 125 110 30 28 87 77 125 110 39 34 93 81 120 105 28 24 82 72 120
106 39 33 95 83 125 110 30 27 87 76 125 110 39 33 93 80 120 104 55 47 159
139 245 216 64 57 174 154 245 215 95 83 190 166 245 215 64 57 174 154 245
215 48 42 126 111 245 215 96 85 193 170 245 215 28 24 82 71 120 105 39 34
93 81 120 105 28 24 105 92 172 151 67 60 178 158 248 218 69 61 179 157 245
215 65 58 178 157 250 220 72 63 182 160 245 215 62 55 150 132 194 170 l81
70 0 1453 0 1452 -18145 0 -18145 0 0 -18175z"/>
<path d="M32288 26359 c-14 -24 -31 -54 -37 -66 l-12 -23 113 0 113 0 -45 30
c-25 16 -59 46 -76 66 l-31 36 -25 -43z"/>
<path d="M32085 25993 c-3 -10 -227 -13 -1073 -13 -588 0 -1562 -3 -2164 -7
l-1096 -6 -401 -335 c-221 -184 -400 -336 -398 -338 3 -3 3059 -5 7275 -4
l2062 0 0 358 0 357 -267 -3 c-1074 -14 -3376 -23 -3382 -14 -10 17 -549 21
-556 5z"/>
<path d="M7855 25276 c-16 -8 -43 -28 -60 -45 l-30 -32 0 -4214 0 -4214 30
-32 c17 -17 45 -38 64 -46 30 -13 586 -15 4385 -19 l4351 -5 5150 4295 c2832
2363 5156 4303 5164 4311 14 13 -1029 15 -9504 15 -7932 -1 -9525 -3 -9550
-14z"/>
<path d="M28600 21010 l0 -3410 3410 0 3410 0 0 3410 0 3410 -3410 0 -3410 0
0 -3410z m6590 0 l0 -3180 -3180 0 -3180 0 0 3180 0 3180 3180 0 3180 0 0
-3180z"/>
<path d="M32010 21643 c0 -408 -3 -744 -7 -746 -16 -9 -172 25 -267 58 -308
107 -573 361 -695 665 -65 165 -76 226 -76 440 1 147 5 209 17 252 15 55 15
56 -6 62 -32 9 -99 7 -115 -3 -35 -22 -59 -284 -41 -446 67 -598 499 -1061
1086 -1163 l99 -17 5 -695 c3 -382 6 -696 8 -697 16 -16 70 -33 106 -33 33 0
52 6 75 26 l31 26 2 686 3 686 103 17 c487 82 883 423 1037 894 67 207 81 487
34 680 l-10 40 -76 2 c-66 2 -74 1 -69 -14 43 -110 46 -442 6 -588 -106 -390
-383 -694 -746 -820 -97 -33 -261 -68 -276 -59 -4 3 -8 340 -8 749 l0 743
-110 -1 -110 -1 0 -743z"/>
<path d="M26990 16690 c-11 -20 -21 -20 -5199 -20 l-5189 0 -407 -337 -406
-338 4918 -6 c6364 -8 5894 -6 5887 -23 -8 -20 47 -26 141 -14 44 5 114 6 155
2 41 -4 119 -7 173 -8 87 -1 100 1 109 17 9 18 132 19 4231 13 2322 -3 4372
-9 4555 -12 l332 -6 0 356 0 356 -4366 0 c-4361 0 -4365 0 -4359 20 6 20 2 20
-279 20 -275 0 -286 -1 -296 -20z"/>
<path d="M36260 13679 c-23 -8 -63 -19 -185 -50 -22 -6 -69 -19 -105 -29 -36
-11 -91 -27 -123 -36 -32 -10 -53 -20 -48 -24 6 -3 -325 -97 -737 -208 -411
-111 -1260 -341 -1887 -511 -627 -169 -2917 -789 -5090 -1376 -2172 -588
-3954 -1071 -3958 -1075 -13 -11 3733 -5390 3768 -5412 16 -10 46 -23 65 -28
23 -7 1131 -14 3175 -20 1727 -5 3593 -11 4148 -13 l1007 -4 0 4399 c0 2419
-1 4398 -3 4397 -1 -1 -13 -5 -27 -10z m-113 -55 c-3 -3 -12 -4 -19 -1 -8 3
-5 6 6 6 11 1 17 -2 13 -5z m-150 -40 c-3 -3 -12 -4 -19 -1 -8 3 -5 6 6 6 11
1 17 -2 13 -5z m-40 -10 c-3 -3 -12 -4 -19 -1 -8 3 -5 6 6 6 11 1 17 -2 13 -5z
m-52 -14 c-11 -5 -27 -9 -35 -9 -9 0 -8 4 5 9 11 5 27 9 35 9 9 0 8 -4 -5 -9z
m-58 -16 c-3 -3 -12 -4 -19 -1 -8 3 -5 6 6 6 11 1 17 -2 13 -5z"/>
<path d="M35690 13520 c-11 -8 -7 -9 15 -4 37 8 45 14 19 14 -10 0 -26 -5 -34
-10z"/>
</g>
</svg>
